HIERARCHY
ROOT root
{
	OFFSET	0	13.1	24.9
	CHANNELS 6  Xposition Yposition Zposition Xrotation Yrotation Zrotation
	JOINT spine_1
	{
		OFFSET	0	9.99999	0
		CHANNELS 3  Xrotation Yrotation Zrotation
		JOINT spine_2
		{
			OFFSET	0	112	-10
			CHANNELS 3  Xrotation Yrotation Zrotation
			JOINT spine_3
			{
				OFFSET	0	206.5	19.3
				CHANNELS 3  Xrotation Yrotation Zrotation
				JOINT spine_4
				{
					OFFSET	0	110.4	14.6
					CHANNELS 3  Xrotation Yrotation Zrotation
					JOINT neck_1
					{
						OFFSET	0	71.8	-50.3
						CHANNELS 3  Xrotation Yrotation Zrotation
						JOINT neck_2
						{
							OFFSET	0	86.2	-25.8
							CHANNELS 3  Xrotation Yrotation Zrotation
							JOINT head_ee
							{
								OFFSET	0	179.8	-8.7
								CHANNELS 3  Xrotation Yrotation Zrotation
								End Site
								{
									OFFSET	1	0	0
								}
							}
						}
					}
					JOINT left_clavicle
					{
						OFFSET	-43.2	22.4	-70.8
						CHANNELS 3  Xrotation Yrotation Zrotation
						JOINT left_shoulder
						{
							OFFSET	-93.9	-5.79999	48.7
							CHANNELS 3  Xrotation Yrotation Zrotation
							JOINT left_elbow
							{
								OFFSET	-291.4	-30.8	15.2
								CHANNELS 3  Xrotation Yrotation Zrotation
								JOINT left_lowarm_twist
								{
									OFFSET	-110.7	-3.89999	13.6
									CHANNELS 3  Xrotation Yrotation Zrotation
									JOINT left_hand
									{
										OFFSET	-110.7	-3.89999	13.6
										CHANNELS 3  Xrotation Yrotation Zrotation
										JOINT left_ee
										{
											OFFSET	-80.8	-5.10001	12.1
											CHANNELS 3  Xrotation Yrotation Zrotation
											End Site
											{
												OFFSET	1	0	0
											}
										}
									}
								}
							}
						}
					}
					JOINT right_clavicle
					{
						OFFSET	43.2	22.4	-70.8
						CHANNELS 3  Xrotation Yrotation Zrotation
						JOINT right_shoulder
						{
							OFFSET	93.9	-5.79999	48.7
							CHANNELS 3  Xrotation Yrotation Zrotation
							JOINT right_elbow
							{
								OFFSET	291.4	-30.8	15.2
								CHANNELS 3  Xrotation Yrotation Zrotation
								JOINT right_lowarm_twist
								{
									OFFSET	110.7	-3.89999	13.6
									CHANNELS 3  Xrotation Yrotation Zrotation
									JOINT right_hand
									{
										OFFSET	110.7	-3.89999	13.6
										CHANNELS 3  Xrotation Yrotation Zrotation
										JOINT right_ee
										{
											OFFSET	80.8	-5.10001	12.1
											CHANNELS 3  Xrotation Yrotation Zrotation
											End Site
											{
												OFFSET	1	0	0
											}
										}
									}
								}
							}
						}
					}
				}
			}
		}
	}
	JOINT left_hip
	{
		OFFSET	-82.8	-127.5	0.300001
		CHANNELS 3  Xrotation Yrotation Zrotation
		JOINT left_knee
		{
			OFFSET	-28.2	-396.7	2.2
			CHANNELS 3  Xrotation Yrotation Zrotation
			JOINT left_ankle
			{
				OFFSET	-11.7	-411.3	35.4
				CHANNELS 3  Xrotation Yrotation Zrotation
				JOINT left_toes
				{
					OFFSET	0	-60	-88.6
					CHANNELS 3  Xrotation Yrotation Zrotation
					JOINT left_foot_ee
					{
						OFFSET	-22.5	-16.5	-42.2
						CHANNELS 3  Xrotation Yrotation Zrotation
						End Site
						{
							OFFSET	1	0	0
						}
					}
				}
			}
		}
	}
	JOINT right_hip
	{
		OFFSET	82.8	-127.5	0.300001
		CHANNELS 3  Xrotation Yrotation Zrotation
		JOINT right_knee
		{
			OFFSET	28.2	-396.7	2.2
			CHANNELS 3  Xrotation Yrotation Zrotation
			JOINT right_ankle
			{
				OFFSET	11.7	-411.3	35.4
				CHANNELS 3  Xrotation Yrotation Zrotation
				JOINT right_toes
				{
					OFFSET	0	-60	-88.6
					CHANNELS 3  Xrotation Yrotation Zrotation
					JOINT right_foot_ee
					{
						OFFSET	22.5	-16.5	-42.2
						CHANNELS 3  Xrotation Yrotation Zrotation
						End Site
						{
							OFFSET	1	0	0
						}
					}
				}
			}
		}
	}
}
MOTION
Frames: 10
Frame Time: 0.02
1372.05 701.618 -1475.22 -28.8502901691 29.1979372518 9.9392034054 11.2885 0.117252 1.11346 11.2892 0.0461669 1.11866 11.2883 0.0296841 1.11922 11.2867 0.206061 1.10049 -20.6517 3.10452 0.124907 -20.7044 5.92592 1.4482 -0.0 0.0 -0.0 3.93439 6.10086 7.85664 -11.3257 -20.6814 58.2977 2.06513 -45.6461 0.869158 6.34431 0.179938 -0.790012 3.1169 -28.7588 7.68901 -0.0 0.0 -0.0 11.1172 5.67023 -22.248 -19.7945 -40.6378 -55.9732 0.303548 8.55161 -0.022695 -67.4008 6.21485 -5.27137 7.98465 15.6304 -53.7788 0.0 0.0 0.0 24.5847 24.2682 5.71237 -33.8939 -0.124666 5.12502 9.15859 27.2192 -1.383 10.5957 -0.0 -0.0 -0.0 0.0 -0.0 59.1171 -18.1396 -0.0526272 -12.801 -0.311939 -1.93565 -7.29175 24.778 -1.29735 11.0095 -0.0 -0.0 0.0 0.0 0.0 
1358.51023986 698.095 -1494.11524531 -28.3542461446 29.9996154609 9.46482799886 11.1978 0.255111 1.12806 11.1985 0.182817 1.14201 11.2003 0.164244 1.14483 11.1987 0.342976 1.10453 -20.6387 2.34969 0.823015 -20.6619 4.12323 1.76998 -0.0 0.0 -0.0 2.94421 5.99377 6.0488 -13.1519 -21.897 59.6291 2.11831 -46.3736 0.907416 5.91869 0.170616 -0.736442 2.98063 -28.7462 6.82826 -0.0 0.0 -0.0 11.3594 6.70906 -22.8043 -16.4249 -40.5927 -54.6912 0.285853 8.05986 -0.0201389 -65.9178 6.02654 -5.24698 7.88356 12.7983 -55.3556 0.0 0.0 0.0 25.2833 28.3505 4.10041 -34.057 -0.132583 5.14879 4.70119 30.2597 -0.73319 4.25911 -0.0 -0.0 -0.0 0.0 -0.0 59.4314 -17.8402 1.06339 -15.071 -0.321775 -2.28378 -4.09442 23.1183 -0.710386 15.3349 -0.0 -0.0 0.0 0.0 0.0 
1358.77060979 698.095 -1494.29912984 -28.1425375733 29.3075026891 9.0369309453 11.1978 0.255111 1.12806 11.1985 0.182817 1.14201 11.2003 0.164244 1.14483 11.1987 0.342976 1.10453 -20.6387 2.34969 0.823015 -20.6619 4.12323 1.76998 -0.0 0.0 -0.0 2.94421 5.99377 6.0488 -13.1519 -21.897 59.6291 2.11831 -46.3736 0.907416 5.91869 0.170616 -0.736442 2.98063 -28.7462 6.82826 -0.0 0.0 -0.0 11.3594 6.70906 -22.8043 -16.4249 -40.5927 -54.6912 0.285853 8.05986 -0.0201389 -65.9178 6.02654 -5.24698 7.88356 12.7983 -55.3556 0.0 0.0 0.0 25.2833 28.3505 4.10041 -34.057 -0.132583 5.14879 4.70119 30.2597 -0.73319 4.25911 -0.0 -0.0 -0.0 0.0 -0.0 59.4314 -17.8402 1.06339 -15.071 -0.321775 -2.28378 -4.09442 23.1183 -0.710386 15.3349 -0.0 -0.0 0.0 0.0 0.0 
1349.50466844 703.955 -1511.42106145 -28.3549683757 30.0689824599 9.0156945921 11.0919 0.280899 1.14846 11.0927 0.207256 1.164 11.095 0.186181 1.16756 11.0933 0.368227 1.12351 -20.1799 2.46704 0.927998 -20.2036 4.28847 1.8985 -0.0 0.0 -0.0 2.2506 5.54093 4.75683 -16.914 -22.5447 60.5132 2.09123 -46.0056 0.887877 5.7658 0.16717 -0.717216 2.72009 -29.0674 5.00812 -0.0 0.0 -0.0 11.063 7.14257 -22.1603 -15.1324 -40.0571 -58.0959 0.389944 10.9332 -0.0373181 -64.4777 5.84429 -5.21862 7.60272 8.27504 -56.1436 0.0 0.0 0.0 25.8901 30.1641 2.913 -35.1183 -0.185752 5.30291 7.52382 29.786 -1.16079 -3.93216 0.0 0.0 -0.0 0.0 -0.0 58.6317 -16.1208 1.35353 -16.6524 -0.320474 -2.5264 -0.600495 19.8428 -0.099931 20.366 -0.0 -0.0 0.0 0.0 0.0 
1335.3056629 704.184 -1529.17923086 -28.4278603091 29.9001965169 8.44112462463 11.0193 0.302658 1.19995 11.0201 0.225695 1.21677 11.0229 0.202133 1.2209 11.021 0.392402 1.17367 -19.3934 2.94349 0.00243711 -19.4371 5.67031 1.2003 -0.0 0.0 -0.0 1.93471 5.98565 4.21593 -19.4195 -22.6168 60.9529 1.91537 -43.491 0.76404 5.65746 0.164697 -0.703597 2.36896 -28.7604 2.9392 -0.0 0.0 -0.0 10.8292 7.1225 -21.6476 -16.7503 -39.521 -59.6235 0.5144 14.296 -0.0645099 -64.3365 5.82646 -5.21559 7.52403 6.94616 -56.3169 0.0 0.0 0.0 26.8761 28.7788 2.97581 -35.818 -0.222368 5.40399 10.2752 30.2288 -1.57756 -11.7105 0.0 0.0 -0.0 0.0 -0.0 56.9861 -13.8241 1.69063 -17.7445 -0.315667 -2.6939 3.04548 15.8946 0.484747 24.4555 -0.0 -0.0 0.0 0.0 0.0 
1318.97555233 709.194 -1552.06100145 -28.8540813878 29.2270370062 7.64115731254 11.2491 0.397102 1.64941 11.2506 0.291356 1.67132 11.2551 0.265841 1.67557 11.2516 0.527096 1.61259 -19.6326 3.21986 -0.737106 -19.6917 6.58449 0.639993 -0.0 0.0 -0.0 -0.0862271 9.50607 0.976869 -16.2987 -20.5683 66.6994 1.58681 -38.1666 0.548995 1.76101 0.0587102 -0.217248 1.76747 -28.9085 -0.939613 -0.0 0.0 -0.0 10.9826 6.85579 -21.9794 -18.2071 -43.3652 -63.046 0.651563 17.8884 -0.102548 -66.9826 6.16169 -5.26498 6.90348 4.69585 -50.9775 0.0 0.0 0.0 28.1215 19.6937 5.57097 -40.5607 -0.502824 6.07659 5.13096 30.0916 -0.798398 -15.8916 0.0 0.0 -0.0 0.0 -0.0 54.5768 -11.1149 1.03192 -16.1416 -0.321627 -2.44803 11.4081 13.4923 1.73141 26.0051 -0.0 -0.0 0.0 0.0 0.0 
1320.7785585 709.194 -1553.27559421 -28.5044655688 28.0568565574 6.91182539993 11.2491 0.397102 1.64941 11.2506 0.291356 1.67132 11.2551 0.265841 1.67557 11.2516 0.527096 1.61259 -19.6326 3.21986 -0.737106 -19.6917 6.58449 0.639993 -0.0 0.0 -0.0 -0.0862271 9.50607 0.976869 -16.2987 -20.5683 66.6994 1.58681 -38.1666 0.548995 1.76101 0.0587102 -0.217248 1.76747 -28.9085 -0.939613 -0.0 0.0 -0.0 10.9826 6.85579 -21.9794 -18.2071 -43.3652 -63.046 0.651563 17.8884 -0.102548 -66.9826 6.16169 -5.26498 6.90348 4.69585 -50.9775 0.0 0.0 0.0 28.1215 19.6937 5.57097 -40.5607 -0.502824 6.07659 5.13096 30.0916 -0.798398 -15.8916 0.0 0.0 -0.0 0.0 -0.0 54.5768 -11.1149 1.03192 -16.1416 -0.321627 -2.44803 11.4081 13.4923 1.73141 26.0051 -0.0 -0.0 0.0 0.0 0.0 
1284.10109585 715.868 -1584.94801248 -25.7684636528 26.9934442856 2.83977376857 11.1016 0.688378 2.05693 11.1038 0.556125 2.09655 11.1181 0.519275 2.10597 11.1129 0.845292 1.9976 -19.7822 3.172 -0.789481 -19.8407 6.51796 0.580018 -0.0 0.0 -0.0 0.64653 13.7166 2.67313 -24.8843 -23.5546 62.5785 1.40533 -34.8421 0.44099 -0.762467 -0.0274884 0.0934914 1.48361 -28.5735 -2.58233 -0.0 0.0 -0.0 11.0351 5.30957 -22.0592 -19.0063 -38.4678 -63.8617 0.744455 20.243 -0.132898 -64.0076 5.78495 -5.20836 7.25389 2.82891 -56.2349 0.0 0.0 0.0 32.7822 15.0908 6.42081 -56.5754 -1.84176 8.13746 28.8901 27.1127 -4.03086 -19.3017 0.0 0.0 -0.0 0.0 -0.0 51.4951 -10.4815 3.76459 -19.6618 -0.299509 -2.98761 18.32 14.4055 2.71134 29.0034 -0.0 -0.0 0.0 0.0 0.0 
1278.00376374 717.922 -1603.84401763 -25.345656712 27.2249551045 2.38043904359 11.155 0.500486 2.20042 11.1576 0.359489 2.22779 11.1646 0.322053 2.23351 11.1583 0.67067 2.15468 -21.0522 4.06854 -2.73054 -21.1655 9.18479 -0.75215 -0.0 0.0 -0.0 0.61641 13.1599 2.56804 -24.0327 -23.6766 63.4893 0.991437 -26.1565 0.230323 -3.21034 -0.124118 0.39107 1.96517 -28.3307 0.588334 -0.0 0.0 -0.0 10.7549 2.36425 -21.3485 -21.5768 -30.3111 -66.032 0.891252 23.8212 -0.187992 -62.2675 5.56603 -5.16616 7.21393 3.57866 -55.2193 0.0 0.0 0.0 35.7931 10.8262 6.20856 -60.9086 -2.29889 8.62478 32.4284 26.2861 -4.41776 -26.6069 0.0 0.0 -0.0 0.0 -0.0 49.1647 -9.74727 4.41112 -18.3679 -0.311492 -2.78945 20.8064 13.9898 3.03149 28.6445 -0.0 -0.0 0.0 0.0 0.0 
1263.15140874 716.891 -1630.29357447 -22.5526345488 26.8531349923 -0.100423157861 10.9655 0.503158 2.53646 10.969 0.340791 2.56332 10.9752 0.289249 2.56964 10.9666 0.691319 2.49179 -22.316 5.51483 -4.31864 -22.5457 12.658 -1.45124 -0.0 0.0 -0.0 -0.417407 14.9449 1.08962 -23.008 -24.3969 65.6266 0.689394 -18.8554 0.114472 -2.25645 -0.0849496 0.275595 3.0265 -28.5151 7.24173 -0.0 0.0 -0.0 11.0229 6.13662 -22.0534 -23.0608 -26.2049 -69.1435 0.920423 24.5103 -0.199934 -60.6799 5.36742 -5.12184 7.36989 6.54454 -54.8252 0.0 0.0 0.0 39.8763 6.53691 7.8224 -68.6014 -3.19675 9.40065 37.9432 25.8017 -4.9913 -27.2013 0.0 0.0 -0.0 0.0 -0.0 45.9029 -8.47092 5.5653 -20.6705 -0.287065 -3.14188 29.5215 13.467 4.07261 21.2316 -0.0 -0.0 0.0 0.0 0.0 
